<svg width="128" height="128" viewBox="0 0 128 128" xmlns="http://www.w3.org/2000/svg" role="img" aria-labelledby="title desc">
  <title id="title">Bitcoin Logo Minimalista</title>
  <desc id="desc">Logotipo circular minimalista do Bitcoin com brilho dourado.</desc>
  <defs>
    <radialGradient id="glow" cx="50%" cy="50%" r="50%">
      <stop offset="0%" stop-color="#f7d794" stop-opacity="1" />
      <stop offset="70%" stop-color="#f0c674" stop-opacity="0.85" />
      <stop offset="100%" stop-color="#f0c674" stop-opacity="0" />
    </radialGradient>
    <linearGradient id="coin" x1="0%" y1="0%" x2="100%" y2="100%">
      <stop offset="0%" stop-color="#ffdf8c" />
      <stop offset="50%" stop-color="#f0c674" />
      <stop offset="100%" stop-color="#c28f2c" />
    </linearGradient>
  </defs>
  <circle cx="64" cy="64" r="60" fill="url(#glow)" />
  <circle cx="64" cy="64" r="44" fill="url(#coin)" stroke="#fef5d4" stroke-width="4" />
  <path fill="#1b1b1b" d="M73.7 39.5l2-9.7-6.6-1.3-2 9.5c-1.7-.4-3.5-.7-5.4-.9l2-9.7-6.6-1.3-2 9.7c-1.4-.2-2.8-.5-4.2-.7l-4.5-.9-1.3 6.8s2.5.5 2.4.5c1.3.3 1.5 1.3 1.4 2l-1.4 7c.1 0 .3.1.4.1l-.4-.1-3.6 18.1c-.1.4-.5 1.3-1.8 1.1.1.1-2.4-.5-2.4-.5l-1.5 7.6 4.2.8c1.5.3 3 .6 4.4.9l-2.1 9.9 6.6 1.3 2-9.7c1.8.4 3.6.7 5.4.9l-2 9.6 6.6 1.3 2.1-9.9c11.2 2.1 19.6 1.2 23.1-8.8 2.8-7.9-.1-12.5-6-15.5 4.3-1 7.5-3.7 8.3-9.4 1.2-8-4.9-12.3-13.2-14.2zm-3.2 31.2c-2.3 8.8-17.8 4.1-22.8 3l4.1-20.7c5 .9 21.3 2.8 18.7 17.7zm2.3-31.6c-2.1 7.8-14.9 3.8-19 2.8l3.7-18.7c4.1.8 17.5 2.1 15.3 15.9z" />
</svg>
